HIERARCHY
ROOT SpineBase
{
  OFFSET 0.000000 0.000000 0.000000
  CHANNELS 6 Xposition Yposition Zposition Zrotation Xrotation Yrotation
  JOINT SpineMid
  {
    OFFSET 0.000000 32.311924 0.000000
    CHANNELS 3 Zrotation Xrotation Yrotation
    JOINT SpineShoulder
    {
      OFFSET 0.036791 24.036317 -0.798338
      CHANNELS 3 Zrotation Xrotation Yrotation
      JOINT Neck
      {
        OFFSET -0.049875 8.020502 -0.609382
        CHANNELS 3 Zrotation Xrotation Yrotation
        JOINT Head
        {
          OFFSET 4.645966 12.872718 5.680917
          CHANNELS 3 Zrotation Xrotation Yrotation
          End Site
          {
            OFFSET 0 0 0
          }
        }
      }
      JOINT ShoulderLeft
      {
        OFFSET -4.303235 -3.691865 -8.577158
        CHANNELS 3 Zrotation Xrotation Yrotation
        JOINT ElbowLeft
        {
          OFFSET 9.588101 -22.153919 -11.495580
          CHANNELS 3 Zrotation Xrotation Yrotation
          JOINT WristLeft
          {
            OFFSET 8.222766 -24.484072 4.985262
            CHANNELS 3 Zrotation Xrotation Yrotation
            JOINT HandLeft
            {
              OFFSET 1.342214 -6.304182 2.059384
              CHANNELS 3 Zrotation Xrotation Yrotation
              JOINT HandTipLeft
              {
                OFFSET 2.067588 -5.399288 1.248162
                CHANNELS 3 Zrotation Xrotation Yrotation
                End Site
                {
                  OFFSET 0 0 0
                }
              }
              JOINT ThumbLeft
              {
                OFFSET -2.195228 -2.001110 -1.688186
                CHANNELS 3 Zrotation Xrotation Yrotation
                End Site
                {
                  OFFSET 0 0 0
                }
              }
            }
          }
        }
      }
      JOINT ShoulderRight
      {
        OFFSET 4.646714 -7.066934 -16.049446
        CHANNELS 3 Zrotation Xrotation Yrotation
        JOINT ElbowRight
        {
          OFFSET 3.147374 -21.223334 -4.789183
          CHANNELS 3 Zrotation Xrotation Yrotation
          JOINT WristRight
          {
            OFFSET 4.098391 -21.844105 1.357769
            CHANNELS 3 Zrotation Xrotation Yrotation
            JOINT HandRight
            {
              OFFSET 2.021428 -4.216228 5.391370
              CHANNELS 3 Zrotation Xrotation Yrotation
              JOINT HandTipRight
              {
                OFFSET 0.219700 -3.411707 -0.826410
                CHANNELS 3 Zrotation Xrotation Yrotation
                End Site
                {
                  OFFSET 0 0 0
                }
              }
              JOINT ThumbRight
              {
                OFFSET -1.643110 1.803017 -2.118688
                CHANNELS 3 Zrotation Xrotation Yrotation
                End Site
                {
                  OFFSET 0 0 0
                }
              }
            }
          }
        }
      }
    }
  }
  JOINT HipLeft
  {
    OFFSET -5.006513 2.173306 -6.499100
    CHANNELS 3 Zrotation Xrotation Yrotation
    JOINT KneeLeft
    {
      OFFSET 8.571757 -31.524254 -2.884261
      CHANNELS 3 Zrotation Xrotation Yrotation
      JOINT AnkleLeft
      {
        OFFSET -7.985285 -23.915390 -2.668757
        CHANNELS 3 Zrotation Xrotation Yrotation
        JOINT FootLeft
        {
          OFFSET -4.465451 -2.129761 8.407176
          CHANNELS 3 Zrotation Xrotation Yrotation
          End Site
          {
            OFFSET 0 0 0
          }
        }
      }
    }
  }
  JOINT HipRight
  {
    OFFSET 3.946049 0.190941 -0.358829
    CHANNELS 3 Zrotation Xrotation Yrotation
    JOINT KneeRight
    {
      OFFSET -14.357003 -25.305732 12.347808
      CHANNELS 3 Zrotation Xrotation Yrotation
      JOINT AnkleRight
      {
        OFFSET -2.888664 -30.826761 2.606653
        CHANNELS 3 Zrotation Xrotation Yrotation
        JOINT FootRight
        {
          OFFSET -6.829159 -3.473040 -10.751922
          CHANNELS 3 Zrotation Xrotation Yrotation
          End Site
          {
            OFFSET 0 0 0
          }
        }
      }
    }
  }
}
MOTION
Frames: 14
Frame Time: 0.033333
56.654948 62.431215 323.027275 0.845909 1.780065 -20.642754 0.360864 1.177966 20.679326 0.377735 0.329789 0.124164 -1.101311 -7.340304 1.021852 0.000000 0.000000 0.000000 -7.085811 -5.923967 0.803545 4.891213 7.566621 0.026043 5.531441 -4.814054 0.631843 -12.627688 5.137990 -1.249640 0.000000 0.000000 0.000000 0.000000 0.000000 0.000000 -15.212853 -3.350489 2.016401 20.968713 -11.112328 -3.608375 -21.844628 43.984189 18.307033 29.039278 -53.377257 3.920993 0.000000 0.000000 0.000000 0.000000 0.000000 0.000000 3.834880 0.776490 20.552354 -4.836094 0.512583 -0.476238 0.008838 -2.660195 1.987683 0.000000 0.000000 0.000000 -0.551829 1.278371 19.180355 -0.839647 -4.362158 1.510626 0.809859 1.910881 -3.518866 0.000000 0.000000 0.000000
56.406616 62.449055 323.540148 0.659714 1.335880 -20.933971 0.535285 1.614659 20.977372 0.432051 0.090622 0.136796 0.351867 -8.093153 0.843914 0.000000 0.000000 0.000000 -7.238688 -5.489675 0.851378 5.174431 7.345683 0.004292 4.932880 -3.984785 0.587391 -11.878191 4.015886 -1.524167 0.000000 0.000000 0.000000 0.000000 0.000000 0.000000 -16.180585 -2.940491 2.247503 21.717883 -11.279804 -3.762796 -19.895350 42.461004 18.090905 19.748068 -54.021516 -2.273416 0.000000 0.000000 0.000000 0.000000 0.000000 0.000000 5.169648 2.204333 20.740033 -7.038122 0.114755 -0.416985 0.644123 0.343929 -4.539378 0.000000 0.000000 0.000000 -0.128352 2.288936 19.559673 -1.689668 -4.320562 1.331432 1.095780 1.454717 -3.444261 0.000000 0.000000 0.000000
56.041173 62.557337 324.099210 0.333750 0.693951 -21.270961 0.703564 1.990799 21.313776 0.453394 -0.197041 0.137229 -0.007961 -8.089126 1.219072 0.000000 0.000000 0.000000 -7.360734 -4.827304 0.999180 5.426039 7.340399 -0.057692 4.349409 -2.259560 0.663054 -10.922195 2.803990 -1.676068 0.000000 0.000000 0.000000 0.000000 0.000000 0.000000 -16.662145 -2.705617 2.409936 22.197317 -10.936947 -3.912905 -21.599922 44.497353 19.417950 11.442993 -58.964811 -6.983595 0.000000 0.000000 0.000000 0.000000 0.000000 0.000000 6.693870 4.126017 20.912054 -9.320310 -0.504757 -0.422802 2.757316 7.527839 -19.405018 0.000000 0.000000 0.000000 0.558662 3.486013 20.135542 -2.047907 -3.779962 1.050748 0.644315 0.598547 -3.158071 0.000000 0.000000 0.000000
55.639887 62.630288 324.631013 -0.077747 -0.171974 -21.291940 0.833305 2.246755 21.322149 0.500102 -0.490733 0.128066 2.290532 -4.667020 -0.604752 0.000000 0.000000 0.000000 -7.542127 -4.241810 1.110022 5.676529 8.116941 0.021698 3.339603 -0.785054 0.484527 -7.632083 0.450595 -1.535283 0.000000 0.000000 0.000000 0.000000 0.000000 0.000000 -17.066634 -3.296267 2.379808 22.771846 -9.441307 -4.226014 -25.958789 48.110557 21.138131 3.280042 -64.072643 -11.732717 0.000000 0.000000 0.000000 0.000000 0.000000 0.000000 7.907359 6.195289 20.733109 -10.954796 -1.255709 -0.504107 10.959417 18.856019 -49.417214 0.000000 0.000000 0.000000 1.318870 4.527873 20.555419 -3.400329 -2.848217 0.434435 1.204415 -0.333249 -2.443925 0.000000 0.000000 0.000000
55.244843 62.620284 325.095605 -0.424176 -0.827155 -20.489337 0.835186 2.365548 20.502247 0.581291 -0.550325 0.114056 3.339809 -1.796677 -1.886956 0.000000 0.000000 0.000000 -7.968719 -3.885047 1.436001 6.193157 9.075139 -0.040322 1.665587 1.262875 0.132563 -4.239226 -2.445620 -1.194121 0.000000 0.000000 0.000000 0.000000 0.000000 0.000000 -16.829010 -3.371724 2.390246 22.798746 -8.786179 -4.310458 -34.956061 53.118114 22.356555 -2.038029 -76.619352 -15.041993 0.000000 0.000000 0.000000 0.000000 0.000000 0.000000 9.002633 7.818092 19.752667 -12.301621 -1.840312 -0.674073 25.868302 24.494781 -84.709055 0.000000 0.000000 0.000000 2.225875 5.050445 20.266879 -3.982994 -1.366383 -0.220861 1.102209 -1.438384 -2.056215 0.000000 0.000000 0.000000
54.829763 62.570973 325.500782 -0.786062 -1.281100 -19.749708 0.850309 2.314662 19.744532 0.558860 -0.653421 0.087869 3.774242 1.132322 -2.846964 0.000000 0.000000 0.000000 -8.572440 -3.519820 1.966383 6.734188 10.313082 -0.227383 0.342284 3.061408 -0.185641 -0.619638 -6.445045 -0.948555 0.000000 0.000000 0.000000 0.000000 0.000000 0.000000 -16.349821 -2.915646 2.545667 22.756434 -8.684276 -4.310639 -48.251809 59.191705 26.909424 31.822004 -86.143970 17.463424 0.000000 0.000000 0.000000 0.000000 0.000000 0.000000 9.786953 9.047962 18.909469 -12.763541 -2.362502 -0.900808 34.790386 23.637751 -105.266851 0.000000 0.000000 0.000000 3.305427 5.527209 20.014253 -4.666747 -0.236517 -0.853436 0.971156 -2.292134 -1.634268 0.000000 0.000000 0.000000
54.486129 62.462257 325.783529 -1.025440 -1.423650 -19.631460 0.487824 1.685285 19.611544 0.980763 -0.358541 0.075336 4.018335 2.858094 -3.338406 0.000000 0.000000 0.000000 -9.358215 -3.449255 2.531338 7.039734 11.557038 -0.514648 -0.052272 5.525277 -0.009207 0.751824 -9.825827 -1.047995 0.000000 0.000000 0.000000 0.000000 0.000000 0.000000 -15.772941 -1.998131 2.789988 22.549147 -9.295633 -4.186924 -68.059437 65.151789 40.242016 -166.321472 -79.692605 177.944395 0.000000 0.000000 0.000000 0.000000 0.000000 0.000000 10.319405 9.685933 18.722928 -12.926564 -2.638264 -1.026092 38.985444 22.198334 -115.004074 0.000000 0.000000 0.000000 3.953816 5.629045 20.198144 -4.870088 0.864262 -1.253165 0.864431 -3.086605 -1.802072 0.000000 0.000000 0.000000
54.228604 62.317493 325.918240 -1.106014 -1.247869 -19.189222 0.634688 1.541921 19.168636 -0.000000 0.000000 0.000000 3.455129 3.527163 -2.896640 0.000000 0.000000 0.000000 -9.603513 -3.993738 3.098103 7.329414 12.624644 -0.893914 -0.400811 8.518053 0.384665 3.197881 -14.509051 -0.928737 0.000000 0.000000 0.000000 0.000000 0.000000 0.000000 -14.935225 -1.539015 3.026777 22.663946 -10.164759 -4.112262 -95.150950 68.273814 59.523153 -161.538295 -62.972940 178.327343 0.000000 0.000000 0.000000 0.000000 0.000000 0.000000 10.593238 9.658355 18.313129 -12.809200 -2.700969 -1.121738 41.042234 21.280639 -119.327016 0.000000 0.000000 0.000000 4.497220 5.774695 19.853405 -5.303470 0.757619 -1.398086 0.925259 -3.061196 -2.181419 0.000000 0.000000 0.000000
54.047199 62.187013 325.906485 -1.090779 -0.800058 -19.405252 0.763159 1.116905 19.390197 -0.000000 0.000000 0.000000 1.237849 3.403901 -1.795277 0.000000 0.000000 0.000000 -10.699938 -3.865018 3.749205 7.717623 13.154577 -1.376378 -0.407357 11.138485 0.921970 4.310378 -18.186820 -1.037184 0.000000 0.000000 0.000000 0.000000 0.000000 0.000000 -15.283448 -0.618389 3.364830 22.972740 -11.163952 -4.064512 -112.876911 68.100096 73.864806 -157.211787 -55.180354 179.818260 0.000000 0.000000 0.000000 0.000000 0.000000 0.000000 10.360406 9.049639 18.659158 -12.071152 -2.520513 -1.138691 40.923884 21.095201 -119.972672 0.000000 0.000000 0.000000 4.823331 5.449473 20.202725 -5.452648 0.677796 -1.500781 0.826572 -2.909219 -2.285197 0.000000 0.000000 0.000000
53.689433 62.205510 326.138995 -1.371590 -0.706668 -19.955477 1.048274 1.132170 19.936661 -0.000000 0.000000 0.000000 -1.110417 2.811859 -0.490701 0.000000 0.000000 0.000000 -11.638885 -3.623139 4.385651 8.116441 13.311841 -1.892253 0.591218 12.863985 1.649461 4.288965 -19.981695 -1.171434 0.000000 0.000000 0.000000 0.000000 0.000000 0.000000 -16.249825 0.265847 3.847054 23.872498 -12.222142 -4.135244 -105.795061 68.413449 67.654208 -155.234575 -58.110144 -175.953953 0.000000 0.000000 0.000000 0.000000 0.000000 0.000000 10.255676 9.305333 19.305483 -11.319812 -2.712694 -1.280000 38.775528 21.772475 -116.687741 0.000000 0.000000 0.000000 5.580726 6.176233 20.786149 -6.211312 0.301486 -1.645317 0.802075 -2.953386 -2.087825 0.000000 0.000000 0.000000
53.391012 62.378972 326.365100 -1.623153 -0.630258 -21.015997 1.289424 1.170198 20.993901 -0.000000 0.000000 0.000000 -3.551285 1.913641 0.919257 0.000000 0.000000 0.000000 -12.374681 -3.433419 4.890222 8.763494 13.459338 -2.254725 1.502012 13.491099 2.066484 3.068771 -20.901139 -1.930299 0.000000 0.000000 0.000000 0.000000 0.000000 0.000000 -17.358675 0.781576 4.270727 24.918278 -12.932915 -4.269090 -94.709020 68.092280 61.945676 -145.393092 -54.636823 -163.365057 0.000000 0.000000 0.000000 0.000000 0.000000 0.000000 9.816286 9.448498 20.490399 -10.097371 -2.805331 -1.393110 37.420626 21.860481 -116.132543 0.000000 0.000000 0.000000 6.113449 6.903363 21.833815 -6.670803 -0.021669 -1.722514 0.543187 -3.076358 -1.609024 0.000000 0.000000 0.000000
53.180550 62.587043 326.600194 -1.812854 -0.648906 -22.360968 0.650431 0.890233 22.320562 -0.057147 0.110706 -0.040607 -4.467123 0.606574 2.204325 0.000000 0.000000 0.000000 -11.922164 -3.375769 5.275328 9.633477 13.365511 -2.516581 2.977863 13.568534 2.566832 0.506156 -21.140005 -3.361224 0.000000 0.000000 0.000000 0.000000 0.000000 0.000000 -17.281868 0.925741 4.600158 25.727451 -13.284912 -4.393435 -84.075079 67.326287 59.115677 -138.450008 -53.545679 -153.576970 0.000000 0.000000 0.000000 0.000000 0.000000 0.000000 9.054915 9.593941 21.988756 -8.666001 -2.889154 -1.502613 35.775476 21.991398 -115.285886 0.000000 0.000000 0.000000 6.369310 7.697982 23.100792 -6.927655 -0.332350 -1.724514 0.156741 -3.281194 -0.855574 0.000000 0.000000 0.000000
52.927765 62.973827 326.866994 -2.124738 -0.843245 -23.682011 0.713941 0.966093 23.628189 -0.046606 0.238972 -0.047808 -5.592017 -1.199568 3.363108 0.000000 0.000000 0.000000 -11.928125 -3.429997 5.361461 10.394013 13.242128 -2.621188 5.565891 12.712544 3.250945 -4.225820 -19.209260 -5.441689 0.000000 0.000000 0.000000 0.000000 0.000000 0.000000 -17.870323 0.341064 4.632096 26.509302 -12.783026 -4.639646 -72.718371 66.256415 56.651829 -134.360297 -54.672676 -147.912992 0.000000 0.000000 0.000000 0.000000 0.000000 0.000000 8.937002 10.191135 23.306316 -8.189837 -3.008460 -1.569659 34.233265 22.131174 -114.239469 0.000000 0.000000 0.000000 6.702887 8.876313 24.291772 -7.372598 -1.011790 -1.711711 -0.166034 -3.466557 0.305051 0.000000 0.000000 0.000000
52.946626 63.176402 327.037020 -2.086413 -1.056730 -24.979184 0.578828 0.950797 24.919985 0.018737 0.303180 -0.046752 -3.204749 -1.445182 2.506620 0.000000 0.000000 0.000000 -11.803955 -3.497536 5.221852 10.974670 13.198755 -2.514114 8.471314 9.043134 3.555988 -7.328246 -14.528021 -5.787465 0.000000 0.000000 0.000000 0.000000 0.000000 0.000000 -18.310295 -0.823997 4.377708 26.997199 -11.535589 -4.944258 -59.769741 64.415071 50.070597 -128.908817 -60.938753 -141.500732 0.000000 0.000000 0.000000 0.000000 0.000000 0.000000 8.518017 10.392677 24.577439 -8.154313 -2.693973 -1.594812 33.191816 22.131768 -113.004214 0.000000 0.000000 0.000000 6.324277 9.374064 25.479204 -7.172005 -0.921292 -1.627434 -0.650377 -3.762186 1.123855 0.000000 0.000000 0.000000
